<?xml version="1.0" encoding="UTF-8"?>
<svg width="24px" height="247px" viewBox="0 0 24 247" version="1.1" xmlns="http://www.w3.org/2000/svg" xmlns:xlink="http://www.w3.org/1999/xlink">
    <g id="Page-1" stroke="none" stroke-width="1" fill="none" fill-rule="evenodd">
        <g id="Group-2">
            <g id="channel-icons-v2">
                <g id="Channel_x2F_Ad">
                    <g id="Group-2">
                        <path d="M3.9,14 C3.7,14.5 3.9,15.1 4.4,15.3 C4.5,15.4 4.7,15.4 4.8,15.4 C5.2,15.4 5.5,15.2 5.7,14.8 L6.7,12.5 C6.9,12 6.7,11.4 6.2,11.2 C5.9,11.1 5.6,10.9 5.4,10.7 L3.9,14 L3.9,14 Z" id="Fill-2" fill="#F186B5"></path>
                        <path d="M11.4,1.4 C11.6,0.9 11.4,0.3 10.9,0.1 C10.4,-0.1 9.8,0.1 9.6,0.6 L8.2,3.9 C8.9,4 9.5,4.2 10,4.6 L11.4,1.4 L11.4,1.4 Z" id="Fill-4" fill="#F186B5"></path>
                        <path d="M0.6,9.7 C0.1,9.9 -0.1,10.5 0.1,11 C0.3,11.4 0.6,11.6 1,11.6 C1.1,11.6 1.3,11.6 1.4,11.5 L4.7,10 C4.3,9.5 4,8.9 3.9,8.3 L0.6,9.7 L0.6,9.7 Z" id="Fill-6" fill="#F186B5"></path>
                        <path d="M15.3,4.4 C15.1,3.9 14.5,3.7 14,3.9 L10.7,5.3 C10.9,5.6 11.1,5.8 11.2,6.1 C11.4,6.6 11.9,6.8 12.4,6.6 L14.8,5.6 C15.3,5.5 15.5,4.9 15.3,4.4" id="Fill-8" fill="#F186B5"></path>
                        <path d="M1.4,3.9 C0.9,3.7 0.3,3.9 0.1,4.4 C-0.1,4.9 0.1,5.5 0.6,5.7 L3.9,7.2 C4,6.5 4.2,5.9 4.6,5.4 L1.4,3.9 L1.4,3.9 Z" id="Fill-10" fill="#F186B5"></path>
                        <path d="M5.7,0.6 C5.5,0.1 4.9,-0.1 4.4,0.1 C3.9,0.3 3.7,0.9 3.9,1.3 L5.3,4.6 C5.8,4.3 6.4,4 7.1,3.9 L5.7,0.6 L5.7,0.6 Z" id="Fill-12" fill="#F186B5"></path>
                        <path d="M14.8,22.8 C14,23.8 12.7,23.6 12.2,22.4 L7.1,7.1 L22.4,12.2 C23.6,12.6 23.9,14 22.8,14.8 L20.6,16.4 L23,18.8 C23.8,19.6 23.7,20.8 23,21.5 L21.5,23 C20.8,23.7 19.5,23.8 18.8,23 L16.4,20.6 L14.8,22.8 L14.8,22.8 Z M10.2,10.2 L13.8,21 L16.2,17.7 L20.1,21.6 L21.6,20.1 L17.7,16.2 L21,13.8 L10.2,10.2 L10.2,10.2 Z" id="Stroke-3" fill="#B7B7B7"></path>
                    </g>
                </g>
                <g id="Group" transform="translate(0.000000, 32.000000)">
                    <path d="M22.8,6.6 L20,4.6 L20,3 C20,1.3 18.7,0 17,0 L7,0 C5.3,0 4,1.3 4,3 L4,4.6 L1.2,6.6 C0.5,7.2 0,8.1 0,9 L0,21 C0,22.7 1.3,24 3,24 L21,24 C22.7,24 24,22.7 24,21 L24,9 C24,8.1 23.5,7.2 22.8,6.6 L22.8,6.6 Z M6,3 C6,2.4 6.4,2 7,2 L10.9,2 L13,2 L17,2 C17.6,2 18,2.4 18,3 L18,3.1 L18,5.6 L18,13.4 L13.2,16.9 C12.5,17.4 11.6,17.4 10.8,16.9 L6,13.4 L6,5.6 L6,3.1 L6,3 L6,3 Z M2,9 C2,8.7 2.2,8.4 2.4,8.2 L4,7.1 L4,12 L2,10.5 L2,9 L2,9 Z M22,21 C22,21.6 21.6,22 21,22 L20,22 L4,22 L3,22 C2.4,22 2,21.6 2,21 L2,13 L4,14.5 L6,16 L9.6,18.7 C10.3,19.2 11.1,19.5 12,19.5 C12.9,19.5 13.6,19.2 14.4,18.7 L18,16 L20,14.5 L22,13 L22,21 L22,21 Z M22,10.5 L20,12 L20,7.1 L21.6,8.3 C21.9,8.5 22,8.8 22,9.1 L22,10.5 L22,10.5 Z" id="Shape" fill="#B7B7B7"></path>
                    <g transform="translate(8.000000, 5.000000)" id="Shape" fill="#94CCE8">
                        <path d="M1,2 L7,2 C7.6,2 8,1.5 8,1 C8,0.4 7.6,0 7,0 L1,0 C0.4,0 0,0.4 0,1 C0,1.5 0.4,2 1,2"></path>
                        <path d="M1,6 L4,6 C4.6,6 5,5.5 5,5 C5,4.4 4.6,4 4,4 L1,4 C0.4,4 0,4.4 0,5 C0,5.5 0.4,6 1,6"></path>
                    </g>
                </g>
                <path d="M21,64 L3,64 C1.3,64 0,65.3 0,67 L0,85 C0,86.7 1.3,88 3,88 L21,88 C22.7,88 24,86.7 24,85 L24,67 C24,65.3 22.7,64 21,64 L21,64 Z M4,66 L6,66 L6,68 L4,68 L4,66 L4,66 Z M8,66 L10,66 L10,68 L8,68 L8,66 L8,66 Z M12,66 L14,66 L14,68 L12,68 L12,66 L12,66 Z M21,86 L3,86 C2.4,86 2,85.6 2,85 L2,70 L22,70 L22,85 C22,85.6 21.6,86 21,86 L21,86 Z" id="Shape" fill="#B7B7B7"></path>
                <path d="M18,75 L6,75 C5.4,75 5,74.6 5,74 L5,74 C5,73.4 5.4,73 6,73 L18,73 C18.6,73 19,73.4 19,74 L19,74 C19,74.6 18.6,75 18,75 L18,75 Z" id="Shape" fill="#BBA1E3"></path>
                <path d="M18,79 L6,79 C5.4,79 5,78.6 5,78 L5,78 C5,77.4 5.4,77 6,77 L18,77 C18.6,77 19,77.4 19,78 L19,78 C19,78.6 18.6,79 18,79 L18,79 Z" id="Shape" fill="#BBA1E3"></path>
                <path d="M13,83 L6,83 C5.4,83 5,82.6 5,82 L5,82 C5,81.4 5.4,81 6,81 L13,81 C13.6,81 14,81.4 14,82 L14,82 C14,82.6 13.6,83 13,83 L13,83 Z" id="Shape" fill="#BBA1E3"></path>
                <path d="M21,160 L3,160 C1.3,160 0,161.3 0,163 L0,181 C0,182.7 1.3,184 3,184 L21,184 C22.7,184 24,182.7 24,181 L24,163 C24,161.3 22.7,160 21,160 L21,160 Z M4,162 L6,162 L6,164 L4,164 L4,162 L4,162 Z M8,162 L10,162 L10,164 L8,164 L8,162 L8,162 Z M12,162 L14,162 L14,164 L12,164 L12,162 L12,162 Z M21,182 L3,182 C2.4,182 2,181.6 2,181 L2,166 L22,166 L22,181 C22,181.6 21.6,182 21,182 L21,182 Z" id="Shape" fill="#B7B7B7"></path>
                <path d="M16.4,173.4 C16.8,173 17,172.5 17,172 C17,170.9 16.1,170 15,170 C14.4,170 13.9,170.3 13.5,170.7 C13.2,171 13,171.3 12.9,171.4 C12.5,172.1 11.5,172.1 11.1,171.4 C11,171.2 10.8,170.9 10.5,170.7 C10.1,170.3 9.6,170 9,170 C7.9,170 7,170.9 7,172 C7,172.5 7.2,173 7.6,173.4 L12,178 L16.4,173.4 L16.4,173.4 Z M12,169.3 C12.8,168.5 13.8,168 15,168 C17.2,168 19,169.8 19,172 C19,173 18.6,174 17.9,174.8 L13.5,179.4 C13.1,179.8 12.6,180 12,180 C11.4,180 10.9,179.8 10.6,179.4 L6.2,174.8 C5.4,174 5,173 5,172 C5,169.8 6.8,168 9,168 C10.2,168 11.2,168.5 12,169.3 L12,169.3 L12,169.3 L12,169.3 Z" id="Shape" fill="#FB8D70"></path>
                <path d="M21,120 L3,120 C1.3,120 0,118.7 0,117 L0,99 C0,97.3 1.3,96 3,96 L21,96 C22.7,96 24,97.3 24,99 L24,117 C24,118.7 22.7,120 21,120 L21,120 Z M3,98 C2.4,98 2,98.4 2,99 L2,117 C2,117.6 2.4,118 3,118 L21,118 C21.6,118 22,117.6 22,117 L22,99 C22,98.4 21.6,98 21,98 L3,98 L3,98 Z" id="Shape" fill="#B7B7B7"></path>
                <path d="M7.5,101.5 C6.1,101.5 5,102.6 5,104 C5,105.4 6.1,106.5 7.5,106.5 C8.9,106.5 10,105.4 10,104 C10,102.6 8.9,101.5 7.5,101.5 L7.5,101.5 Z" id="Shape" fill="#B7B7B7"></path>
                <path d="M18,103 L11.4,103 C11.5,103.3 11.5,103.7 11.5,104 C11.5,104.3 11.4,104.7 11.4,105 L18,105 C18.6,105 19,104.6 19,104 C19,103.4 18.6,103 18,103 L18,103 Z" id="Shape" fill="#B7B7B7"></path>
                <path d="M16.5,109.5 C15.1,109.5 14,110.6 14,112 C14,113.4 15.1,114.5 16.5,114.5 C17.9,114.5 19,113.4 19,112 C19,110.6 17.9,109.5 16.5,109.5 L16.5,109.5 Z" id="Shape" fill="#26DCB1"></path>
                <path d="M12.5,112 C12.5,111.7 12.6,111.3 12.6,111 L7,111 C6.4,111 6,111.4 6,112 C6,112.6 6.4,113 7,113 L12.6,113 C12.6,112.7 12.5,112.3 12.5,112 L12.5,112 Z" id="Shape" fill="#B7B7B7"></path>
                <path d="M21,152 L3,152 C1.3,152 0,150.7 0,149 L0,131 C0,129.3 1.3,128 3,128 L21,128 C22.7,128 24,129.3 24,131 L24,149 C24,150.7 22.7,152 21,152 L21,152 Z M3,130 C2.4,130 2,130.4 2,131 L2,149 C2,149.6 2.4,150 3,150 L21,150 C21.6,150 22,149.6 22,149 L22,131 C22,130.4 21.6,130 21,130 L3,130 L3,130 Z" id="Shape" fill="#B7B7B7"></path>
                <path d="M8,144 C7.7,144 7.5,143.9 7.3,143.7 L4.3,140.7 C3.9,140.3 3.9,139.7 4.3,139.3 L7.3,136.3 C7.7,135.9 8.3,135.9 8.7,136.3 C9.1,136.7 9.1,137.3 8.7,137.7 L6.4,140 L8.7,142.3 C9.1,142.7 9.1,143.3 8.7,143.7 C8.5,143.9 8.3,144 8,144 L8,144 Z" id="Shape" fill="#B7B7B7"></path>
                <path d="M16,144 C15.7,144 15.5,143.9 15.3,143.7 C14.9,143.3 14.9,142.7 15.3,142.3 L17.6,140 L15.3,137.7 C14.9,137.3 14.9,136.7 15.3,136.3 C15.7,135.9 16.3,135.9 16.7,136.3 L19.7,139.3 C20.1,139.7 20.1,140.3 19.7,140.7 L16.7,143.7 C16.5,143.9 16.3,144 16,144 L16,144 Z" id="Shape" fill="#B7B7B7"></path>
                <path d="M11,146 L10.8,146 C10.3,145.9 9.9,145.4 10,144.8 L12,134.8 C12.1,134.3 12.6,133.9 13.2,134 C13.7,134.1 14.1,134.6 14,135.2 L12,145.2 C11.9,145.7 11.5,146 11,146 L11,146 Z" id="Shape" fill="#FFBF4D"></path>
                <path d="M18,201 L15,201 C14.4,201 14,200.6 14,200 L14,198 C14,197.4 14.4,197 15,197 L18,197 C18.6,197 19,197.4 19,198 L19,200 C19,200.6 18.6,201 18,201 L18,201 Z" id="Shape" fill="#26DCB1"></path>
                <path d="M18,206 L6,206 C5.4,206 5,205.6 5,205 L5,205 C5,204.4 5.4,204 6,204 L18,204 C18.6,204 19,204.4 19,205 L19,205 C19,205.6 18.6,206 18,206 L18,206 Z" id="Shape" fill="#B7B7B7"></path>
                <path d="M13,210 L6,210 C5.4,210 5,209.6 5,209 L5,209 C5,208.4 5.4,208 6,208 L13,208 C13.6,208 14,208.4 14,209 L14,209 C14,209.6 13.6,210 13,210 L13,210 Z" id="Shape" fill="#B7B7B7"></path>
                <path d="M21,216 L3,216 C1.3,216 0,214.7 0,213 L0,195 C0,193.3 1.3,192 3,192 L21,192 C22.7,192 24,193.3 24,195 L24,213 C24,214.7 22.7,216 21,216 L21,216 Z M3,194 C2.4,194 2,194.4 2,195 L2,213 C2,213.6 2.4,214 3,214 L21,214 C21.6,214 22,213.6 22,213 L22,195 C22,194.4 21.6,194 21,194 L3,194 L3,194 Z" id="Shape" fill="#B7B7B7"></path>
            </g>
            <g id="social_post_v2" transform="translate(0.000000, 223.000000)">
                <g id="Layer_1">
                    <path d="M20,24 L4,24 C1.8,24 0,22.2 0,20 L0,4 C0,1.8 1.8,0 4,0 L20,0 C22.2,0 24,1.8 24,4 L24,20 C24,22.2 22.2,24 20,24 L20,24 Z M4,2 C2.9,2 2,2.9 2,4 L2,20 C2,21.1 2.9,22 4,22 L20,22 C21.1,22 22,21.1 22,20 L22,4 C22,2.9 21.1,2 20,2 L4,2 L4,2 Z" id="Shape" fill="#B7B7B7"></path>
                    <path d="M12,18.8 L6,18.8 C5.6,18.8 5.2,18.5 5.2,18 C5.2,17.5 5.5,17.2 6,17.2 L12,17.2 C12.4,17.2 12.8,17.5 12.8,18 C12.8,18.5 12.4,18.8 12,18.8 L12,18.8 Z M18,15.8 L6,15.8 C5.6,15.8 5.2,15.5 5.2,15 C5.2,14.5 5.5,14.2 6,14.2 L18,14.2 C18.4,14.2 18.8,14.5 18.8,15 C18.8,15.5 18.4,15.8 18,15.8 L18,15.8 Z" id="Shape" fill="#B7B7B7"></path>
                    <path d="M6,5 L18,5 C18.6,5 19,5.4 19,6 L19,11 C19,11.6 18.6,12 18,12 L6,12 C5.4,12 5,11.6 5,11 L5,6 C5,5.4 5.4,5 6,5 L6,5 Z" id="Shape" fill="#DECEF3"></path>
                </g>
            </g>
        </g>
    </g>
</svg>
